#!OML:ASF H:\Martial Arts Walks\Project 1\Capture day 1\Session 1\male.ASF
:FULLY-SPECIFIED
:DEGREES
2384
root -4.58035 16.8211 -49.5988 -1.57564 27.447 -5.84199
lowerback 10.4234 8.45375 -3.76213
upperback -0.710244 10.3719 -8.03844
thorax -5.68678 5.14718 -8.005
lowerneck -4.03612 12.1718 7.62251
upperneck 32.3629 18.7794 -3.42715
head 12.4617 9.13559 -0.208315
rclavicle 9.70069e-014 -1.27222e-014
rhumerus -36.9286 0.712899 -75.4272
rradius 59.6117
rwrist -6.95012
rhand -14.1177 -24.0572
rfingers 7.12502
rthumb 12.0156 -53.6922
lclavicle 9.70069e-014 -1.27222e-014
lhumerus -12.354 -61.4536 94.9541
lradius 118.612
lwrist -2.07419
lhand -16.706 21.6672
lfingers 7.12502
lthumb 9.51904 -308.568
rfemur -12.4423 -9.28267 35.5695
rtibia 36.1591
rfoot -18.3666 -19.9961
rtoes 7.36554
lfemur -29.179 -11.3055 9.57025
ltibia 43.9243
lfoot 9.87699 1.43455
ltoes -9.61677
2385
root -4.58603 16.8205 -49.5887 -1.54732 27.373 -5.7789
lowerback 10.4009 8.41957 -3.76354
upperback -0.737629 10.3269 -8.00746
thorax -5.71415 5.12397 -7.96438
lowerneck -4.07819 12.1661 7.60274
upperneck 32.3724 18.774 -3.4413
head 12.4731 9.12781 -0.207555
rclavicle -1.24042e-013 -2.8625e-014
rhumerus -36.8787 1.06558 -75.7071
rradius 60.7189
rwrist -6.66354
rhand -13.8012 -23.4634
rfingers 7.12502
rthumb 12.3208 -53.0804
lclavicle -1.24042e-013 -2.8625e-014
lhumerus -13.0192 -61.2479 95.0857
lradius 118.556
lwrist -1.81161
lhand -15.8384 21.8938
lfingers 7.12502
lthumb 10.3561 -308.381
rfemur -12.4061 -9.19802 35.549
rtibia 36.1608
rfoot -18.3803 -20.0139
rtoes 7.37804
lfemur -29.2739 -11.1213 9.4705
ltibia 44.1906
lfoot 10.0859 1.5172
ltoes -9.58437
2386
root -4.59089 16.8206 -49.5781 -1.51143 27.3068 -5.70558
lowerback 10.3767 8.37125 -3.76903
upperback -0.762318 10.2631 -7.97089
thorax -5.74132 5.0916 -7.91241
lowerneck -4.12199 12.1682 7.56832
upperneck 32.3822 18.7809 -3.45335
head 12.4839 9.12388 -0.202117
rclavicle -9.14409e-014 6.36111e-015
rhumerus -36.8426 1.44301 -76.0176
rradius 61.7833
rwrist -6.29387
rhand -13.5047 -22.8325
rfingers 7.12502
rthumb 12.6067 -52.4321
lclavicle -9.14409e-014 6.36111e-015
lhumerus -13.7636 -61.0312 95.2347
lradius 118.371
lwrist -1.8886
lhand -15.5075 21.8087
lfingers 7.12502
lthumb 10.6753 -308.483
rfemur -12.3668 -9.13158 35.5148
rtibia 36.1545
rfoot -18.3929 -20.023
rtoes 7.36222
lfemur -29.3811 -10.9145 9.35161
ltibia 44.4696
lfoot 10.2948 1.56111
ltoes -9.59476
2387
root -4.59492 16.8219 -49.5672 -1.46721 27.2429 -5.62561
lowerback 10.3537 8.32139 -3.76298
upperback -0.788891 10.1984 -7.93807
thorax -5.76838 5.05858 -7.87086
lowerneck -4.16538 12.1624 7.54055
upperneck 32.3963 18.7758 -3.46509
head 12.4963 9.11543 -0.199113
rclavicle -6.04305e-014 1.90833e-014
rhumerus -36.8207 1.79065 -76.3438
rradius 62.7994
rwrist -5.90861
rhand -13.2068 -22.1333
rfingers 7.12502
rthumb 12.8938 -51.715
lclavicle -6.04305e-014 1.90833e-014
lhumerus -14.5546 -60.8486 95.3918
lradius 118.088
lwrist -2.22656
lhand -15.5982 21.725
lfingers 7.12502
lthumb 10.5877 -308.562
rfemur -12.3245 -9.08904 35.4685
rtibia 36.136
rfoot -18.404 -20.0093
rtoes 7.3238
lfemur -29.4978 -10.6925 9.21872
ltibia 44.7573
lfoot 10.4783 1.58375
ltoes -9.69257
2388
root -4.59805 16.8238 -49.5564 -1.42592 27.1841 -5.5507
lowerback 10.3349 8.26655 -3.74186
upperback -0.812804 10.1291 -7.89976
thorax -5.79363 5.02299 -7.83113
lowerneck -4.20471 12.1529 7.51169
upperneck 32.4088 18.7665 -3.48114
head 12.5073 9.10479 -0.198498
rclavicle 8.98507e-014 1.59028e-014
rhumerus -36.8067 2.13667 -76.6899
rradius 63.7415
rwrist -5.44265
rhand -13.0036 -21.4011
rfingers 7.12502
rthumb 13.0897 -50.9703
lclavicle 8.98507e-014 1.59028e-014
lhumerus -15.3502 -60.6425 95.5331
lradius 117.759
lwrist -2.5469
lhand -15.6953 21.6744
lfingers 7.12502
lthumb 10.4941 -308.608
rfemur -12.2767 -9.06242 35.4215
rtibia 36.1095
rfoot -18.4111 -19.9844
rtoes 7.25732
lfemur -29.6232 -10.4863 9.08578
ltibia 45.0546
lfoot 10.6534 1.60173
ltoes -9.81975
2389
root -4.60009 16.8258 -49.5461 -1.385 27.1294 -5.48476
lowerback 10.3183 8.20454 -3.70133
upperback -0.833093 10.0531 -7.85598
thorax -5.81447 4.98374 -7.79476
lowerneck -4.25039 12.1399 7.48416
upperneck 32.4201 18.7552 -3.51034
head 12.5207 9.0916 -0.202554
rclavicle -2.78299e-015 -3.18055e-015
rhumerus -36.8051 2.47326 -77.0523
rradius 64.629
rwrist -4.9278
rhand -12.6234 -20.6246
rfingers 7.12502
rthumb 13.4562 -50.1699
lclavicle -2.78299e-015 -3.18055e-015
lhumerus -16.1394 -60.4035 95.648
lradius 117.389
lwrist -2.83021
lhand -15.7767 21.6418
lfingers 7.12502
lthumb 10.4155 -308.636
rfemur -12.2331 -9.05188 35.3766
rtibia 36.0822
rfoot -18.4145 -19.9452
rtoes 7.1657
lfemur -29.7636 -10.3222 8.96007
ltibia 45.3633
lfoot 10.8303 1.6393
ltoes -9.94219
2390
root -4.60109 16.8271 -49.5365 -1.34991 27.0774 -5.43216
lowerback 10.3148 8.1346 -3.63714
upperback -0.852073 9.96872 -7.80732
thorax -5.83879 4.93962 -7.76674
lowerneck -4.29406 12.1279 7.45595
upperneck 32.4229 18.7449 -3.5434
head 12.5307 9.07846 -0.208243
rclavicle -1.06549e-013 3.49861e-014
rhumerus -36.8186 2.83933 -77.4521
rradius 65.4424
rwrist -4.28553
rhand -12.2733 -19.7938
rfingers 7.12502
rthumb 13.7936 -49.3165
lclavicle -1.06549e-013 3.49861e-014
lhumerus -16.993 -60.1355 95.7794
lradius 116.982
lwrist -3.15034
lhand -15.9212 21.5647
lfingers 7.12502
lthumb 10.2762 -308.706
rfemur -12.1976 -9.04694 35.3394
rtibia 36.0664
rfoot -18.4181 -19.9029
rtoes 7.06273
lfemur -29.9184 -10.2121 8.84796
ltibia 45.6875
lfoot 11.0308 1.7134
ltoes -9.86951
2391
root -4.60139 16.8275 -49.5276 -1.31186 27.0261 -5.38467
lowerback 10.3171 8.05741 -3.56656
upperback -0.869148 9.87533 -7.75269
thorax -5.86519 4.89081 -7.73527
lowerneck -4.33291 12.117 7.43189
upperneck 32.4135 18.7379 -3.59018
head 12.5369 9.06596 -0.219736
rclavicle -1.20861e-013 2.22639e-014
rhumerus -36.8383 3.21644 -77.8644
rradius 66.2033
rwrist -3.62791
rhand -11.9297 -18.9653
rfingers 7.12502
rthumb 14.1248 -48.4652
lclavicle -1.20861e-013 2.22639e-014
lhumerus -17.9001 -59.8253 95.9224
lradius 116.555
lwrist -3.44662
lhand -16.0043 21.5431
lfingers 7.12502
lthumb 10.196 -308.724
rfemur -12.1765 -9.04034 35.3047
rtibia 36.0651
rfoot -18.4233 -19.8608
rtoes 6.96349
lfemur -30.0895 -10.1493 8.74303
ltibia 46.0249
lfoot 11.2583 1.81897
ltoes -9.59963
2392
root -4.60106 16.827 -49.5198 -1.25728 26.9746 -5.33135
lowerback 10.3381 7.98704 -3.47828
upperback -0.900775 9.79026 -7.71286
thorax -5.91112 4.84495 -7.73545
lowerneck -4.33461 12.0955 7.44812
upperneck 32.3767 18.7116 -3.64989
head 12.5291 9.05012 -0.24815
rclavicle -5.1684e-014 7.63333e-014
rhumerus -36.9369 3.54858 -78.3027
rradius 66.948
rwrist -2.9459
rhand -11.601 -18.1335
rfingers 7.12502
rthumb 14.4415 -47.611
lclavicle -5.1684e-014 7.63333e-014
lhumerus -18.8984 -59.5194 96.1072
lradius 116.076
lwrist -3.7738
lhand -16.1434 21.4835
lfingers 7.12502
lthumb 10.0618 -308.777
rfemur -12.1816 -9.03366 35.2635
rtibia 36.0819
rfoot -18.4323 -19.816
rtoes 6.85925
lfemur -30.2862 -10.1007 8.63195
ltibia 46.3733
lfoot 11.529 1.93282
ltoes -9.30313
2393
root -4.59998 16.8274 -49.5118 -1.18867 26.8943 -5.27316
lowerback 10.3582 7.93002 -3.37884
upperback -0.942816 9.72354 -7.6826
thorax -5.96249 4.80757 -7.75551
lowerneck -4.30687 12.0661 7.49108
upperneck 32.3194 18.6707 -3.71689
head 12.5096 9.03163 -0.288081
rclavicle -6.87795e-014 6.36111e-014
rhumerus -37.0783 3.85512 -78.7533
rradius 67.6532
rwrist -2.32612
rhand -11.4475 -17.3483
rfingers 7.12502
rthumb 14.5893 -46.8152
lclavicle -6.87795e-014 6.36111e-014
lhumerus -19.9771 -59.2132 96.3339
lradius 115.534
lwrist -4.19954
lhand -16.3727 21.4758
lfingers 7.12502
lthumb 9.84063 -308.774
rfemur -12.1957 -9.00799 35.2155
rtibia 36.1048
rfoot -18.4525 -19.7533
rtoes 6.79078
lfemur -30.4763 -10.0119 8.50853
ltibia 46.7197
lfoot 11.8227 2.03074
ltoes -8.64984
2394
root -4.59807 16.8282 -49.5028 -1.10908 26.7792 -5.20274
lowerback 10.382 7.90248 -3.26835
upperback -1.00025 9.69557 -7.6742
thorax -6.02298 4.78855 -7.81292
lowerneck -4.253 12.0147 7.56777
upperneck 32.2593 18.5886 -3.76635
head 12.4824 9.00221 -0.334666
rclavicle 8.38871e-014 -4.77083e-014
rhumerus -37.2929 4.07827 -79.2158
rradius 68.3244
rwrist -1.7876
rhand -11.3048 -16.6166
rfingers 7.12502
rthumb 14.7268 -46.0734
lclavicle 8.38871e-014 -4.77083e-014
lhumerus -21.1193 -58.9438 96.5967
lradius 114.92
lwrist -4.67993
lhand -16.6321 21.4233
lfingers 7.12502
lthumb 9.59031 -308.815
rfemur -12.2052 -8.95739 35.1534
rtibia 36.1282
rfoot -18.4886 -19.6708
rtoes 6.77179
lfemur -30.6438 -9.89425 8.36514
ltibia 47.0596
lfoot 12.102 2.11586
ltoes -7.94234
2395
root -4.59534 16.8306 -49.4923 -1.0223 26.6229 -5.12262
lowerback 10.3876 7.89341 -3.16634
upperback -1.05682 9.69274 -7.6676
thorax -6.07101 4.78249 -7.86789
lowerneck -4.19748 11.9557 7.64251
upperneck 32.2025 18.4929 -3.80584
head 12.4537 8.96778 -0.379445
rclavicle 8.0309e-014 -5.725e-014
rhumerus -37.5209 4.26295 -79.665
rradius 68.9522
rwrist -1.44902
rhand -11.1283 -15.9431
rfingers 7.12502
rthumb 14.8969 -45.3874
lclavicle 8.0309e-014 -5.725e-014
lhumerus -22.3186 -58.6516 96.893
lradius 114.246
lwrist -5.24258
lhand -16.9586 21.3114
lfingers 7.12502
lthumb 9.27533 -308.913
rfemur -12.2002 -8.88574 35.0783
rtibia 36.1404
rfoot -18.5359 -19.5609
rtoes 6.7961
lfemur -30.7762 -9.71265 8.19806
ltibia 47.3838
lfoot 12.3396 2.1693
ltoes -7.10313
